HIERARCHY
ROOT Hips
{
  OFFSET 13.6774 106.653 -34.4427
  CHANNELS 6 Xposition Yposition Zposition Zrotation Xrotation Yrotation
  JOINT ToSpine
  {
    OFFSET -2.69724 7.43032 -0.144315
    CHANNELS 3 Zrotation Xrotation Yrotation
    JOINT Spine
    {
      OFFSET -0.0310711 10.7595 1.96963
      CHANNELS 3 Zrotation Xrotation Yrotation
      JOINT Spine1
      {
        OFFSET 19.9056 3.91189 0.764692
        CHANNELS 3 Zrotation Xrotation Yrotation
        JOINT Neck
        {
          OFFSET 25.9749 7.03908 -0.130764
          CHANNELS 3 Zrotation Xrotation Yrotation
          JOINT Head
          {
            OFFSET 9.52751 0.295786 -0.907742
            CHANNELS 3 Zrotation Xrotation Yrotation
            End Site
            {
              OFFSET 16.4037 0.713936 2.7358
            }
          }
        }
        JOINT LeftShoulder
        {
          OFFSET 17.7449 4.33886 11.7777
          CHANNELS 3 Zrotation Xrotation Yrotation
          JOINT LeftArm
          {
            OFFSET 0.911315 1.27913 9.80584
            CHANNELS 3 Zrotation Xrotation Yrotation
            JOINT LeftForeArm
            {
              OFFSET 28.6126 1.18197 -3.53199
              CHANNELS 3 Zrotation Xrotation Yrotation
              JOINT LeftHand
              {
                OFFSET 27.5088 0.0218783 0.327423
                CHANNELS 3 Zrotation Xrotation Yrotation
                End Site
                {
                  OFFSET 18.6038 -0.000155887 0.382096
                }
              }
            }
          }
        }
        JOINT RightShoulder
        {
          OFFSET 17.1009 2.89543 -12.2328
          CHANNELS 3 Zrotation Xrotation Yrotation
          JOINT RightArm
          {
            OFFSET 1.4228 0.178766 -10.211
            CHANNELS 3 Zrotation Xrotation Yrotation
            JOINT RightForeArm
            {
              OFFSET 28.733 1.87905 2.64907
              CHANNELS 3 Zrotation Xrotation Yrotation
              JOINT RightHand
              {
                OFFSET 27.4588 0.290562 -0.101845
                CHANNELS 3 Zrotation Xrotation Yrotation
                End Site
                {
                  OFFSET 17.8396 -0.255518 -0.000602873
                }
              }
            }
          }
        }
      }
    }
  }
  JOINT LeftUpLeg
  {
    OFFSET -5.61296 -2.22332 -10.2353
    CHANNELS 3 Zrotation Xrotation Yrotation
    JOINT LeftLeg
    {
      OFFSET 2.56703 -44.7417 -7.93097
      CHANNELS 3 Zrotation Xrotation Yrotation
      JOINT LeftFoot
      {
        OFFSET 3.16933 -46.5642 -3.96578
        CHANNELS 3 Zrotation Xrotation Yrotation
        JOINT LeftToeBase
        {
          OFFSET 0.346054 -6.02161 12.8035
          CHANNELS 3 Zrotation Xrotation Yrotation
          End Site
          {
            OFFSET 0.134235 -1.35082 5.13018
          }
        }
      }
    }
  }
  JOINT RightUpLeg
  {
    OFFSET -5.7928 -1.72406 10.6446
    CHANNELS 3 Zrotation Xrotation Yrotation
    JOINT RightLeg
    {
      OFFSET -2.57161 -44.7178 -7.85259
      CHANNELS 3 Zrotation Xrotation Yrotation
      JOINT RightFoot
      {
        OFFSET -3.10148 -46.5936 -4.03391
        CHANNELS 3 Zrotation Xrotation Yrotation
        JOINT RightToeBase
        {
          OFFSET -0.0828122 -6.13587 12.8035
          CHANNELS 3 Zrotation Xrotation Yrotation
          End Site
          {
            OFFSET -0.131328 -1.35082 5.13018
          }
        }
      }
    }
  }
}
MOTION
Frames: 16
Frame Time: 0.03333333333333333
0.0000 93.1000 0.0000 68.2848 -37.9998 -12.0327 -70.4361 -0.4875 87.7380 90.2441 68.0783 -3.9015 0.6774 15.7310 5.9431 -153.6132 23.0623 174.2150 -152.0495 61.7964 -177.2266 -0.2757 -13.4757 -32.7536 -79.2151 35.9449 -87.1809 12.1975 6.8797 -60.0162 0.2160 0.1731 0.1234 -2.3378 4.3756 43.9614 -74.1765 -32.9400 77.7761 7.2604 -10.0307 37.7821 -0.2591 -0.3438 -0.5332 -53.1970 4.8702 90.5438 -13.2869 73.7822 4.1278 -0.9764 1.3974 -0.0888 5.6914 -14.8761 10.2256 -38.0780 8.8857 83.1352 1.9433 44.9541 -1.7886 -8.9434 -13.8080 0.6575 2.3178 -6.3259 -13.3684 
0.0000 93.1000 0.0000 67.1289 -37.9640 -12.9738 -70.2688 -0.6338 87.8875 89.0808 68.8249 -2.6380 0.5377 17.2213 5.0834 -152.4825 23.1403 174.3531 -152.0079 61.8138 -177.2118 -0.5108 -13.7997 -32.9367 -76.8952 41.1128 -84.8426 11.2568 8.2070 -54.8076 0.0470 0.4480 0.1657 -2.1913 3.9245 44.0733 -76.0952 -33.8674 81.6339 10.2301 -11.0267 44.2509 0.0594 -0.6955 -0.3361 -46.1465 2.6698 89.9353 -10.6293 72.0469 2.8870 0.0378 -2.2699 -0.9081 7.0078 -16.9155 11.4385 -43.4525 8.7363 84.4353 0.9387 40.5328 0.0395 -6.1628 -14.8314 0.6345 1.7398 -6.2568 -15.3366 
0.0000 93.1000 0.0000 65.7556 -39.1887 -14.7782 -70.1569 -0.2602 87.8467 88.2397 70.1699 -1.4182 0.2465 19.2987 4.8870 -152.6173 23.5254 174.4227 -152.4936 62.1719 -176.2768 -0.1267 -13.1403 -33.2591 -75.1098 44.7443 -82.8567 9.6854 9.3373 -48.2473 0.1254 0.2694 0.0282 -2.0885 4.1913 43.8249 -76.0054 -34.9860 85.8886 13.3126 -11.6775 50.1987 0.2425 -0.4792 -0.2756 -40.7968 1.1467 89.8978 -7.1725 65.2043 1.0129 0.1356 -5.4266 -1.2388 7.1260 -16.4193 11.4372 -48.0978 7.7844 84.6158 1.0239 36.2986 1.9041 -6.4110 -13.6686 1.0365 1.7365 -7.3634 -14.8485 
0.0000 93.1000 0.0000 63.9596 -41.8301 -18.3260 -70.0979 0.2464 87.7265 90.4242 71.5506 -3.7406 -0.5950 21.0460 4.2028 -152.3795 23.9964 174.3694 -153.6065 63.0564 -175.5620 0.2987 -12.8652 -33.7822 -74.1003 47.9223 -81.7600 9.7182 10.5309 -40.8427 -0.1003 0.1266 0.0373 -1.7185 4.3492 42.9660 -76.1300 -35.9388 90.8633 16.1179 -12.4742 54.7761 0.2900 -0.2351 0.1695 -36.1829 0.8645 92.0246 -4.3920 55.9802 -0.2867 1.0098 -7.2989 -1.6758 7.0291 -16.8740 12.0074 -51.8203 7.1101 83.7561 -0.0122 34.2150 5.8941 -5.7529 -14.1974 1.4581 1.5148 -8.7924 -11.1345 
0.0000 93.1000 0.0000 60.8244 -43.7634 -21.2581 -70.2309 0.4582 87.7101 91.3606 73.0464 -3.7473 -0.5572 22.8025 2.8230 -154.7523 24.1604 174.8781 -155.6674 63.0303 -175.2926 0.4346 -12.6952 -34.3371 -74.2095 49.6296 -78.7157 7.2126 10.4261 -33.1441 0.0224 0.3105 -0.0264 -1.3503 4.9399 42.2192 -75.3649 -35.4179 96.9162 19.4201 -12.9145 59.8247 0.3314 -0.4111 0.4954 -33.1765 1.1962 92.1028 -2.9450 44.8122 -2.7151 0.1586 -7.1694 -2.0475 7.3922 -17.6096 14.5760 -54.6506 6.0453 82.2054 0.2049 32.0076 12.9868 -5.4224 -13.8961 1.8403 2.2435 -9.4401 -13.9520 
0.0000 93.1000 0.0000 58.2012 -45.8823 -24.3800 -70.2009 -0.3536 87.6496 91.5462 74.6097 -2.2466 -0.6493 24.2218 0.9168 -155.5760 23.3847 175.9510 -156.2801 62.7471 -173.3802 -0.0456 -12.8106 -34.9563 -78.1903 50.6621 -71.8450 5.7116 14.4385 -27.3338 -0.4188 0.6134 0.3849 -1.7565 5.1822 42.0804 -75.2091 -35.1152 102.3090 21.7793 -12.1150 62.8398 -0.0184 -0.7315 0.0743 -30.0534 2.0156 93.5717 -2.2794 32.9979 -2.8647 -0.4663 -7.7787 -1.8193 7.2167 -17.2124 11.4891 -58.3094 4.6470 80.9493 0.2306 29.9513 13.9202 -6.3571 -14.5381 1.5590 0.7602 -8.5845 -6.8261 
0.0000 93.1000 0.0000 55.9973 -46.8738 -25.0029 -70.2932 -0.3235 87.5724 96.5603 74.8259 -5.9317 -0.8237 25.8465 -0.8840 -157.4845 22.9239 177.2030 -157.4773 62.2546 -173.2531 -0.0187 -12.7095 -35.4678 -91.4902 48.5451 -58.8828 5.6111 24.6264 -22.9677 -0.4269 0.4308 0.4985 -1.8730 5.7537 40.1994 -75.9471 -34.9972 107.6194 23.4218 -12.3964 64.8641 -0.2083 -0.4545 0.4656 -28.8972 2.4943 92.5694 -1.2863 21.8610 -6.8141 -0.6065 -7.8738 -1.6289 8.3365 -18.0019 12.5563 -61.6141 4.2142 79.9247 0.1079 27.0088 16.0697 -5.8354 -15.5054 1.4490 0.6503 -7.7177 -5.4833 
0.0000 93.1000 0.0000 55.1576 -48.1068 -27.4534 -70.1967 -0.0606 87.4756 98.6963 75.7879 -7.3912 -0.6413 27.1527 -1.4619 -158.6661 22.6633 176.3659 -157.3227 61.8161 -172.2435 0.2734 -11.8954 -35.0115 -99.1088 46.1514 -50.6536 5.6653 33.8046 -20.9932 -0.0720 0.1277 0.0470 -1.8415 5.8818 39.0042 -75.2189 -33.6755 112.3872 22.6179 -11.4276 66.5174 0.0721 -0.1525 0.4736 -27.2953 3.0897 92.6201 -0.9377 18.0340 -7.4878 -0.9898 -7.0807 -1.5373 9.5786 -20.6193 14.7063 -64.5794 3.0290 79.7112 -0.8255 26.9016 17.2385 -6.4907 -17.1248 1.8968 1.2309 -9.7635 -6.1567 
0.0000 93.1000 0.0000 54.9152 -50.0120 -27.4872 -70.3637 -0.3414 87.4848 105.7228 76.1376 -13.7720 -1.3569 27.8167 -2.3900 -158.5685 22.0475 176.0280 -156.6117 60.8881 -174.5852 0.0367 -10.9246 -34.2010 -101.5445 44.4873 -45.7927 5.8777 38.2210 -19.3925 0.0259 0.4847 0.3264 -1.7963 5.8775 38.9339 -76.0131 -32.8521 115.5566 22.7496 -10.9443 66.6846 0.3784 -0.5287 0.5766 -25.3198 2.7527 91.8636 -1.4101 17.5938 -5.9283 -0.2329 -8.2819 -1.8307 8.7016 -20.8984 14.4538 -67.5896 1.9314 80.2555 -2.5005 29.2047 20.5239 -7.5557 -18.4711 2.0237 2.2792 -14.3623 -7.2193 
0.0000 93.1000 0.0000 53.8835 -51.0022 -28.4980 -70.2813 -0.1929 87.6450 109.7683 76.8428 -18.8153 -2.6751 28.2006 -2.9781 -158.5039 21.9448 175.8297 -157.1437 60.6739 -174.9987 0.1863 -10.2864 -32.9398 -102.1586 43.9492 -41.7246 6.9119 40.8336 -18.9007 -0.0592 0.5370 0.6354 -1.7239 6.0421 38.2624 -76.0787 -33.0182 116.7013 22.7606 -10.6444 66.5283 0.6317 -0.5392 1.0277 -23.7832 2.8792 92.4689 -2.2533 22.7891 -4.6151 -0.1752 -8.5413 -1.9865 8.4852 -19.6862 13.5795 -70.0836 0.1793 81.8916 -2.2074 31.7273 20.1576 -5.2104 -16.7358 1.7516 2.6586 -18.7522 -4.1907 
0.0000 93.1000 0.0000 53.7707 -49.8673 -29.3375 -70.3696 -0.2440 87.8299 106.7122 76.9152 -16.4489 -3.1031 28.7428 -2.7103 -158.6909 22.1494 174.8995 -155.7837 60.7636 -176.0386 0.1558 -9.6623 -32.3101 -102.9200 42.9703 -38.6889 6.7956 41.8572 -18.9239 -0.2443 0.5614 0.8286 -1.7539 6.2367 38.2334 -77.0210 -31.9429 113.5914 21.8096 -9.9042 66.7506 0.3980 -0.5577 0.6300 -21.8377 3.1371 95.7413 -2.4670 30.2479 -4.7990 -0.8967 -3.3362 -1.3070 6.0978 -15.3153 11.4241 -73.1384 -0.9837 86.7569 -0.7542 34.0908 17.7250 -3.4464 -12.1517 1.1425 3.1597 -21.6970 -5.8636 
0.0000 93.1000 0.0000 54.7902 -47.8200 -30.3173 -70.3956 -0.1218 87.6867 93.7274 76.9761 -8.4475 -2.6135 27.9519 -1.9283 -158.7672 22.3363 173.2777 -154.5406 60.9724 -177.5960 0.3177 -9.7201 -32.2035 -101.9545 42.6051 -38.7309 7.0250 42.3687 -18.0843 -0.2959 0.1075 0.1900 -1.9897 6.1902 39.9198 -75.9472 -31.0385 109.8988 19.8320 -9.4723 65.8519 0.3227 -0.0816 0.2030 -20.5542 0.9768 98.7367 -3.3436 37.9296 -6.7996 -1.0247 -1.4825 -0.7222 5.2108 -13.9890 12.1411 -73.0127 -2.9518 92.6708 2.2396 39.1570 8.3630 -3.6869 -1.8682 0.7532 5.0581 -32.6832 6.2066 
0.0000 93.1000 0.0000 58.0093 -46.2162 -29.0584 -70.5061 -0.5567 87.7499 93.7539 76.5031 -8.8849 -2.3800 27.6404 -1.2833 -158.6715 22.3685 172.5175 -154.1799 61.0103 -179.4830 -0.1566 -10.6795 -32.0006 -101.1226 41.9023 -40.6512 7.0750 42.1141 -18.8377 -0.4901 0.3573 0.3167 -2.2707 5.9458 41.0670 -77.5585 -31.5222 103.7627 20.0505 -10.1077 64.8664 0.2353 -0.3817 0.1538 -21.7554 -0.9061 101.5891 -3.8334 43.9211 -11.9517 2.4810 -1.2980 -0.9856 3.5357 -11.4507 12.4378 -71.7060 -3.8255 92.2205 3.2089 47.0353 6.6044 -0.7360 9.3025 -0.6956 3.0509 -29.5187 7.4026 
0.0000 93.1000 0.0000 57.9082 -44.7925 -27.9079 -70.5329 -0.2985 87.8896 94.8787 75.9387 -10.7128 -3.0154 27.0516 -0.5610 -157.6828 21.9273 172.5578 -153.6597 61.1113 -179.2189 -0.1347 -11.7319 -32.4710 -99.9787 43.7938 -42.7419 8.1734 39.6183 -20.3233 -0.1176 0.2130 0.2388 -2.2252 6.1484 41.4927 -75.0523 -32.0141 99.9642 18.0377 -11.1564 60.7205 -0.0106 -0.1844 0.2701 -24.6409 -2.1601 102.7597 -4.2408 45.2641 -10.1584 3.6177 -6.5808 -1.3355 0.0408 -5.1165 7.5771 -65.7613 -3.9607 92.9969 5.3618 57.2635 5.1590 3.7857 17.2312 -1.9374 2.7421 -19.6592 -14.2176 
0.0000 93.1000 0.0000 59.6194 -43.2839 -27.1187 -70.7379 0.2200 87.8979 93.5604 74.9139 -10.7623 -2.7537 26.0583 0.0684 -158.7661 21.8866 173.5602 -154.9558 59.9822 -179.3847 0.2895 -12.3076 -32.8856 -97.1545 46.7155 -47.7314 8.7967 35.3154 -23.3178 0.3201 -0.2347 -0.2507 -2.2047 5.9628 42.1259 -73.7695 -32.5090 96.6861 16.8344 -12.5140 55.7256 -0.0919 0.3257 -0.0957 -29.2048 -4.7041 102.4023 -3.5745 44.7994 -12.0060 5.0300 -7.3263 -1.5291 -0.1592 -4.6456 9.5344 -58.8586 -4.8967 90.5353 4.9843 67.0842 -6.6005 -1.0209 16.1351 -0.9188 0.7276 -13.8940 -2.8355 
0.0000 93.1000 0.0000 61.9039 -40.9996 -23.9440 -70.6740 0.8189 88.0641 90.9592 74.0916 -9.0857 -1.6537 23.7192 1.0951 -157.6431 21.3261 173.2018 -154.0241 59.5251 -180.0767 0.9487 -12.9066 -32.8884 -88.8712 50.3351 -58.1592 8.9961 26.9134 -25.8124 0.3438 -0.8054 0.0070 -2.2798 5.4336 43.9432 -71.7817 -32.0505 93.9094 15.7705 -14.0502 50.5438 -0.1013 1.0688 -0.3870 -34.2524 -6.8190 100.6088 -4.3546 43.0268 -11.1832 5.0866 -8.2534 -1.1847 0.6246 -4.0063 8.7373 -53.1343 -3.8936 89.8966 6.9745 72.2625 -11.1153 -6.1188 13.3241 -0.1343 0.9415 -14.7438 -6.7570 
